<?xml version="1.0" standalone="no"?><!DOCTYPE svg PUBLIC "-//W3C//DTD SVG 1.1//EN" "http://www.w3.org/Graphics/SVG/1.1/DTD/svg11.dtd"><svg t="1772455491919" class="icon" viewBox="0 0 1024 1024" version="1.1" xmlns="http://www.w3.org/2000/svg" p-id="3826" xmlns:xlink="http://www.w3.org/1999/xlink" width="200" height="200"><path d="M849.92 51.2H174.08c-67.8656 0-122.88 55.0144-122.88 122.88v675.84c0 67.8656 55.0144 122.88 122.88 122.88h675.84c67.8656 0 122.88-55.0144 122.88-122.88V174.08c0-67.8656-55.0144-122.88-122.88-122.88zM448.18432 230.94272c176.98304-53.95968 267.17696 110.98624 267.17696 110.98624-32.59392-17.78176-130.39104-37.53472-235.09504 16.7936s-126.4384 172.87168-126.4384 172.87168c-42.56256-45.4144-44.4928-118.6304-44.4928-118.6304 5.03296-137.41568 138.84928-182.02112 138.84928-182.02112zM393.50784 796.42112c-256.12288-49.6384-197.85216-273.38752-133.81632-371.95264 0 0-2.88256 138.13248 130.22208 214.4 0 0 15.82592 7.1936 10.79296 30.21312l-5.03808 29.49632s-6.656 20.1472 6.02624 22.30272c0 0 4.04992 0 13.39904-6.4768l48.92672-32.37376s10.07104-7.1936 23.01952-5.03808c12.94848 2.16064 95.68768 23.74656 177.70496-44.60032-0.00512 0-15.10912 213.67296-271.23712 164.02944z m256.8448-19.42016c16.54784-7.9104 97.1264-102.8864 58.98752-231.66464s-167.6288-157.55776-167.6288-157.55776c66.19136-28.0576 143.89248-7.19872 143.89248-7.19872 117.9904 34.5344 131.6608 146.77504 131.6608 146.77504 23.01952 200.71936-166.912 249.64608-166.912 249.64608z" fill="#01CC7A" p-id="3827"></path></svg>